<svg xmlns="http://www.w3.org/2000/svg" xmlns:xlink="http://www.w3.org/1999/xlink" version="1.1" x="0px" y="0px" viewBox="0 0 96 120" style="enable-background:new 0 0 96 96;" xml:space="preserve"><g><path d="M50,67.1V19.7l14.2,12.9l2.7-3l-17.5-16c-0.8-0.7-1.9-0.7-2.7,0l-17.5,16l2.7,3L46,19.7v47.5H50z"/><path d="M92,42.9h-4v28c0,4.4-3.6,8-8,8H16c-4.4,0-8-3.6-8-8v-28H4v28c0,6.6,5.4,12,12,12h64c6.6,0,12-5.4,12-12V42.9z"/></g><text x="0" y="111" fill="#000000" font-size="5px" font-weight="bold" font-family="'Helvetica Neue', Helvetica, Arial-Unicode, Arial, Sans-serif">Created by Awesome</text><text x="0" y="116" fill="#000000" font-size="5px" font-weight="bold" font-family="'Helvetica Neue', Helvetica, Arial-Unicode, Arial, Sans-serif">from the Noun Project</text></svg>